<?xml version="1.0" encoding="UTF-8"?>
<svg xmlns="http://www.w3.org/2000/svg" viewBox="0 0 320 180" width="320" height="180">
  <!-- Layered grass field (launcher icon pattern, scaled to banner) -->
  <rect width="320" height="180" fill="#4A7C59"/>
  <rect y="87" width="320" height="93" fill="#5B9A4A"/>
  <rect y="120" width="320" height="60" fill="#3D6B34"/>
  <polygon points="24,130 36,103 47,130" fill="#6BAD58"/>
  <polygon points="65,133 77,107 89,133" fill="#6BAD58"/>
  <polygon points="249,132 261,105 273,132" fill="#6BAD58"/>
  <polygon points="284,135 296,108 308,135" fill="#6BAD58"/>
  <g transform="translate(6 22) scale(1.28)" transform-origin="54px 63px">
    <path fill="#8A8578" d="M28,72 C28,52 38,38 54,34 C70,30 82,42 84,58 C86,74 76,88 58,92 C40,96 28,86 28,72 Z"/>
    <path fill="#B5AFA0" d="M36,48 C40,40 48,36 56,38 C52,44 44,50 36,48 Z"/>
    <path fill="#6B665C" d="M48,88 C56,90 68,88 74,82 C70,90 58,94 48,88 Z"/>
    <path fill="none" stroke="#4A4540" stroke-width="2" d="M28,72 C28,52 38,38 54,34 C70,30 82,42 84,58 C86,74 76,88 58,92 C40,96 28,86 28,72 Z"/>
    <circle cx="44" cy="58" r="3" fill="#2A2824"/>
    <circle cx="64" cy="58" r="3" fill="#2A2824"/>
    <path fill="none" stroke="#2A2824" stroke-width="1.5" stroke-linecap="round" d="M52,68 Q54,72 56,68"/>
  </g>
  <text x="118" y="86" font-family="sans-serif" font-weight="600" font-size="46" fill="#FFFFFF" textLength="188" lengthAdjust="spacingAndGlyphs">Stonecrusher</text>
  <text x="118" y="118" font-family="sans-serif" font-weight="500" font-size="32" fill="#FFFFFF">Media</text>
</svg>
