<?xml version="1.0" encoding="UTF-8"?>
<!-- Stonecrusher rock mark only (transparent background) -->
<svg xmlns="http://www.w3.org/2000/svg" viewBox="0 0 108 108" width="108" height="108">
  <title>Stonecrusher rock</title>
  <path fill="#8A8578" d="M28,72 C28,52 38,38 54,34 C70,30 82,42 84,58 C86,74 76,88 58,92 C40,96 28,86 28,72 Z"/>
  <path fill="#B5AFA0" d="M36,48 C40,40 48,36 56,38 C52,44 44,50 36,48 Z"/>
  <path fill="#6B665C" d="M48,88 C56,90 68,88 74,82 C70,90 58,94 48,88 Z"/>
  <path fill="none" stroke="#4A4540" stroke-width="2" d="M28,72 C28,52 38,38 54,34 C70,30 82,42 84,58 C86,74 76,88 58,92 C40,96 28,86 28,72 Z"/>
  <circle cx="44" cy="58" r="3" fill="#2A2824"/>
  <circle cx="64" cy="58" r="3" fill="#2A2824"/>
  <path fill="none" stroke="#2A2824" stroke-width="1.5" stroke-linecap="round" d="M52,68 Q54,72 56,68"/>
</svg>
