<?xml version="1.0" encoding="UTF-8"?>
<!-- Stonecrusher Media launcher icon: cartoon rock in grass -->
<svg xmlns="http://www.w3.org/2000/svg" viewBox="0 0 108 108" width="108" height="108">
  <title>Stonecrusher Media</title>
  <rect width="108" height="108" fill="#4A7C59"/>
  <rect y="52" width="108" height="56" fill="#5B9A4A"/>
  <rect y="72" width="108" height="36" fill="#3D6B34"/>
  <path fill="#6BAD58" d="M8,78 L12,62 L16,78 Z"/>
  <path fill="#6BAD58" d="M22,80 L26,64 L30,80 Z"/>
  <path fill="#6BAD58" d="M84,79 L88,63 L92,79 Z"/>
  <path fill="#6BAD58" d="M96,81 L100,65 L104,81 Z"/>
  <path fill="#8A8578" d="M28,72 C28,52 38,38 54,34 C70,30 82,42 84,58 C86,74 76,88 58,92 C40,96 28,86 28,72 Z"/>
  <path fill="#B5AFA0" d="M36,48 C40,40 48,36 56,38 C52,44 44,50 36,48 Z"/>
  <path fill="#6B665C" d="M48,88 C56,90 68,88 74,82 C70,90 58,94 48,88 Z"/>
  <path fill="none" stroke="#4A4540" stroke-width="2" d="M28,72 C28,52 38,38 54,34 C70,30 82,42 84,58 C86,74 76,88 58,92 C40,96 28,86 28,72 Z"/>
  <circle cx="44" cy="58" r="3" fill="#2A2824"/>
  <circle cx="64" cy="58" r="3" fill="#2A2824"/>
  <path fill="none" stroke="#2A2824" stroke-width="1.5" stroke-linecap="round" d="M52,68 Q54,72 56,68"/>
</svg>
